<?xml version="1.0" encoding="UTF-8"?>
<svg width="114px" height="40px" viewBox="0 0 114 40" version="1.1" xmlns="http://www.w3.org/2000/svg" xmlns:xlink="http://www.w3.org/1999/xlink">
    <title>Citrix-logo@1x</title>
    <g id="Citrix-logo" stroke="none" stroke-width="1" fill="none" fill-rule="evenodd">
        <g id="Group-19" transform="translate(2.000000, 1.000000)" fill="#231F20">
            <path d="M0,22.8749991 C0,14.446287 5.68344271,8.57772973 13.7789089,8.57772973 C19.2464442,8.57772973 23.6968868,11.2995397 25.4648926,15.5125794 C25.6807999,15.9380432 25.7331892,16.3119037 25.7331892,16.7394738 C25.7331892,17.6994002 24.9822762,18.3402288 24.0175727,18.3402288 C23.2671889,18.3402288 22.625288,17.9126587 22.3024854,17.0590982 C20.9096715,13.6448564 17.7472642,11.6707674 13.7789089,11.6707674 C7.71974508,11.6707674 3.48573902,16.2597739 3.48573902,22.8749991 C3.48573902,29.4365147 7.66735581,34.0234149 13.7789089,34.0234149 C17.7472642,34.0234149 20.7482702,32.1030355 22.3569914,28.1027278 C22.6776773,27.3012972 23.2147996,26.8210707 24.0175727,26.8210707 C24.9822762,26.8210707 25.7331892,27.5682652 25.7331892,28.5281916 C25.7331892,28.9020521 25.6807999,29.1690202 25.5193986,29.6487201 C23.8037821,34.2361468 19.4078456,37.1701622 13.7789089,37.1701622 C5.62893669,37.1701622 0,31.3021315 0,22.8749991" id="Fill-1"></path>
            <path d="M45.4939171,35.2377717 C45.4939171,36.4186181 44.8362844,37.1701622 43.6885343,37.1701622 C42.5386227,37.1701622 41.9366483,36.4186181 41.9366483,35.2377717 L41.9355676,1.93451052 C41.9355676,0.699603805 42.5932003,0 43.7431118,0 C44.8930234,0 45.4949978,0.699603805 45.4949978,1.93451052 L45.4949978,9.51726176 L51.6206546,9.51726176 C52.7149078,9.51726176 53.3725405,10.107155 53.3725405,11.0733502 C53.3725405,12.0416655 52.7149078,12.6320887 51.6206546,12.6320887 L45.4949978,12.6320887 L45.4939171,35.2377717 Z" id="Fill-3"></path>
            <path d="M72.4341622,11.090445 C72.4341622,12.0323903 71.7424425,12.7123684 70.7344933,12.7123684 C70.3621499,12.7123684 69.9903309,12.6079948 69.4580372,12.3460276 C68.6619565,11.9791701 67.8123843,11.7704231 66.6958785,11.7704231 C63.0290828,11.7704231 60.6392676,14.911963 60.6392676,18.8905581 L60.6392676,34.3326738 C60.6392676,35.5350362 60.05558,36.2170811 58.9390742,36.2170811 C57.8230929,36.2170811 57.1848649,35.5350362 57.1848649,34.3326738 L57.1848649,10.8816979 C57.1848649,9.67778542 57.8230929,8.99574056 58.9390742,8.99574056 C60.05558,8.99574056 60.6392676,9.67778542 60.6392676,10.8816979 L60.6392676,11.561676 C62.1275923,9.62456525 64.4633915,8.57772973 67.0682219,8.57772973 C69.0856938,8.57772973 70.5200025,8.99574056 71.5300495,9.62456525 C72.1142615,9.99090602 72.4341622,10.462137 72.4341622,11.090445" id="Fill-5"></path>
            <path d="M75.2934054,11.445729 C75.2934054,10.2228045 75.9958738,9.53081081 77.228813,9.53081081 C78.461173,9.53081081 79.1057297,10.2228045 79.1057297,11.445729 L79.1057297,35.2568179 C79.1057297,36.4257049 78.4009449,37.1701622 77.1709013,37.1701622 C75.9385413,37.1701622 75.2934054,36.4257049 75.2934054,35.2568179 L75.2934054,11.445729 Z" id="Fill-7"></path>
            <path d="M31.4516757,11.445729 C31.4516757,10.2228045 32.1541441,9.53081081 33.3865041,9.53081081 C34.6188642,9.53081081 35.264,10.2228045 35.264,11.445729 L35.264,35.2568179 C35.264,36.4257049 34.5592151,37.1701622 33.3291716,37.1701622 C32.0968115,37.1701622 31.4516757,36.4257049 31.4516757,35.2568179 L31.4516757,11.445729 Z" id="Fill-9"></path>
            <path d="M36.2170811,2.85924324 C36.2170811,4.43807161 34.9367899,5.71848649 33.3581141,5.71848649 C31.7788858,5.71848649 30.4985946,4.43807161 30.4985946,2.85924324 C30.4985946,1.27986226 31.7788858,0 33.3581141,0 C34.9367899,0 36.2170811,1.27986226 36.2170811,2.85924324" id="Fill-11"></path>
            <path d="M97.2142703,25.4765703 L87.8420249,36.4776438 C87.4714626,36.9582096 86.9948015,37.1701622 86.4648295,37.1701622 C85.5115072,37.1701622 84.8242162,36.4257049 84.8242162,35.5752714 C84.8242162,35.2033051 84.9297925,34.7773014 85.3008774,34.3528716 L95.0959505,23.2442479 L85.6714396,12.4021388 C85.3008774,11.976135 85.0897248,11.6036441 85.0897248,11.1257015 C85.0897248,10.275268 85.7770159,9.53081081 86.783649,9.53081081 C87.3120529,9.53081081 87.6831378,9.74486193 88.1075335,10.2233292 L97.2142703,20.9584127 L106.321007,10.2233292 C106.745403,9.74486193 107.116488,9.53081081 107.644892,9.53081081 C108.651525,9.53081081 109.338816,10.275268 109.338816,11.1257015 C109.338816,11.6036441 109.127663,11.976135 108.757101,12.4021388 L99.3325901,23.2442479 L109.127663,34.3528716 C109.498748,34.7773014 109.604324,35.2033051 109.604324,35.5752714 C109.604324,36.4257049 108.916511,37.1701622 107.963711,37.1701622 C107.433739,37.1701622 106.957078,36.9582096 106.586516,36.4776438 L97.2142703,25.4765703 Z" id="Fill-13"></path>
            <path d="M100.073514,2.85924324 C100.073514,4.43807161 98.7937749,5.71848649 97.2145466,5.71848649 C95.6358707,5.71848649 94.355027,4.43807161 94.355027,2.85924324 C94.355027,1.27986226 95.6358707,0 97.2145466,0 C98.7937749,0 100.073514,1.27986226 100.073514,2.85924324" id="Fill-17"></path>
        </g>
    </g>
</svg>