<?xml version="1.0" encoding="UTF-8"?>
<svg width="24px" height="24px" viewBox="0 0 24 24" version="1.1" xmlns="http://www.w3.org/2000/svg" xmlns:xlink="http://www.w3.org/1999/xlink">
    <!-- Generator: Sketch 50.2 (55047) - http://www.bohemiancoding.com/sketch -->
    <title>Error_24</title>
    <desc>Created with Sketch.</desc>
    <defs></defs>
    <g id="Error_24" stroke="none" stroke-width="1" fill="none" fill-rule="evenodd">
        <path d="M0.763077917,21.537434 L11.1134152,1.69928762 C11.3688833,1.20964033 11.9729187,1.01980063 12.462566,1.27526878 C12.643953,1.36990545 12.7919482,1.51790067 12.8865848,1.69928762 L23.2369221,21.537434 C23.4923902,22.0270813 23.3025505,22.6311167 22.8129032,22.8865848 C22.6700988,22.9610915 22.5114098,23 22.3503372,23 L1.64966276,23 C1.09737801,23 0.649662763,22.5522847 0.649662763,22 C0.649662763,21.8389275 0.688571245,21.6802384 0.763077917,21.537434 Z M22.0634384,21.6359773 L12.2224833,2.43411378 C12.1595103,2.31123964 12.0088514,2.26268017 11.8859773,2.32565317 C11.839352,2.34954864 11.8014122,2.38748847 11.7775167,2.43411378 L1.93656163,21.6359773 C1.87358864,21.7588514 1.92214811,21.9095103 2.04502225,21.9724833 C2.08030981,21.9905682 2.11939303,22 2.15904495,22 L21.8409551,22 C21.9790262,22 22.0909551,21.8880712 22.0909551,21.75 C22.0909551,21.7103481 22.0815232,21.6712649 22.0634384,21.6359773 Z M12,19.75 C11.5857864,19.75 11.25,19.4142136 11.25,19 C11.25,18.5857864 11.5857864,18.25 12,18.25 C12.4142136,18.25 12.75,18.5857864 12.75,19 C12.75,19.4142136 12.4142136,19.75 12,19.75 Z M11.5,16.4903342 L11.5,8.50966585 C11.5,8.22247314 11.7238576,8 12,8 C12.2680664,8 12.5,8.22818517 12.5,8.50966585 L12.5,16.4903342 C12.5,16.7775269 12.2761424,17 12,17 C11.7319336,17 11.5,16.7718148 11.5,16.4903342 Z" id="Combined-Shape" fill="#D50032" fill-rule="nonzero"></path>
    </g>
</svg>