<?xml version="1.0" encoding="UTF-8"?>
<svg width="12px" height="12px" viewBox="0 0 12 12" version="1.1" xmlns="http://www.w3.org/2000/svg" xmlns:xlink="http://www.w3.org/1999/xlink">
    <!-- Generator: Sketch 50.2 (55047) - http://www.bohemiancoding.com/sketch -->
    <title>Close</title>
    <desc>Created with Sketch.</desc>
    <defs></defs>
    <g id="Close" stroke="none" stroke-width="1" fill="none" fill-rule="evenodd">
        <path d="M6,5 L1.61614257,0.535087585 C1.32598667,0.239566872 0.859608416,0.231324015 0.558542489,0.532603011 L0.532997753,0.558165825 C0.239057258,0.852314345 0.241894593,1.32755126 0.535776438,1.61614257 L5,6 L0.535776438,10.4649124 C0.240301318,10.7604331 0.232526085,11.2319336 0.535489104,11.5351305 L0.465282302,11.4648695 C0.760598732,11.7604139 1.24116039,11.7588396 1.53508759,11.4649124 L6,7 L10.4649124,11.4649124 C10.7604331,11.7604331 11.2319336,11.7680664 11.5234299,11.4765701 L11.4765701,11.5234299 C11.7656525,11.2343475 11.7588396,10.7588396 11.4649124,10.4649124 L7,6 L11.4649124,1.61614257 C11.7604331,1.32598667 11.768676,0.85944482 11.467397,0.558165825 L11.4418342,0.532603011 C11.1476857,0.23845449 10.6724487,0.241160393 10.3838574,0.535087585 L6,5 Z" id="01---Icons/UI/Modal-Close" fill="#999999"></path>
    </g>
</svg>