<svg width="19" height="19" viewBox="0 0 19 19" fill="none" xmlns="http://www.w3.org/2000/svg">
<path fill-rule="evenodd" clip-rule="evenodd" d="M18.5194 8.34054L10.6592 0.480161C10.0188 -0.160054 8.98076 -0.160054 8.34036 0.480161L0.480151 8.34136C-0.16005 8.98177 -0.16005 10.0199 0.480151 10.6603L8.34036 18.5198C8.98076 19.1601 10.0188 19.1601 10.6592 18.5198L18.5194 10.6603C18.8271 10.3527 19 9.93547 19 9.50041C19 9.06535 18.8271 8.64811 18.5194 8.34054ZM8.73559 4.92202C8.73559 4.46916 9.1027 4.10204 9.55555 4.10204C10.0084 4.10204 10.3755 4.46916 10.3755 4.92202V9.84193C10.3755 10.2948 10.0084 10.6619 9.55555 10.6619C9.1027 10.6619 8.73559 10.2948 8.73559 9.84193V4.92202ZM9.59737 14.3601H9.57441C8.90268 14.3575 8.35234 13.8259 8.32642 13.1547C8.31425 12.83 8.43325 12.514 8.6566 12.278C8.87995 12.042 9.18886 11.9058 9.51373 11.9001H9.53669C10.2088 11.9018 10.7596 12.4339 10.7847 13.1055C10.7969 13.4302 10.6779 13.7461 10.4545 13.9821C10.2312 14.2181 9.92225 14.3543 9.59737 14.3601Z" fill="#D25757"/>
</svg>
