<svg width="20" height="20" viewBox="0 0 20 20" fill="none" xmlns="http://www.w3.org/2000/svg">
<path d="M11.6875 13.375H11.125C10.5037 13.375 10 12.8713 10 12.25V9.4375C10 9.12684 9.74816 8.875 9.4375 8.875H8.875" stroke="white" stroke-width="1.5" stroke-linecap="round" stroke-linejoin="round"/>
<path d="M9.71875 6.0625C9.56342 6.0625 9.4375 6.18842 9.4375 6.34375C9.4375 6.49908 9.56342 6.625 9.71875 6.625C9.87408 6.625 10 6.49908 10 6.34375C10 6.18842 9.87408 6.0625 9.71875 6.0625V6.0625" stroke="white" stroke-width="1.5" stroke-linecap="round" stroke-linejoin="round"/>
<path fill-rule="evenodd" clip-rule="evenodd" d="M10 18.4375C14.6599 18.4375 18.4375 14.6599 18.4375 10C18.4375 5.3401 14.6599 1.5625 10 1.5625C5.3401 1.5625 1.5625 5.3401 1.5625 10C1.5625 14.6599 5.3401 18.4375 10 18.4375Z" stroke="white" stroke-width="1.5" stroke-linecap="round" stroke-linejoin="round"/>
</svg>
