<?xml version="1.0" encoding="UTF-8"?>
<svg width="170px" height="100px" viewBox="0 0 170 100" version="1.1" xmlns="http://www.w3.org/2000/svg" xmlns:xlink="http://www.w3.org/1999/xlink">
    <!-- Generator: Sketch 50.2 (55047) - http://www.bohemiancoding.com/sketch -->
    <title>Workspace Logo</title>
    <desc>Created with Sketch.</desc>
    <defs></defs>
    <g id="Page-1" stroke="none" stroke-width="1" fill="none" fill-rule="evenodd">
        <g id="AddAccount_Chrome_Update" transform="translate(-606.000000, -340.000000)">
            <g id="01a---Employee-Sign-In-Copy-4" transform="translate(51.000000, 112.000000)">
                <g id="Workspace-Logo" transform="translate(555.000000, 228.000000)">
                    <path d="M8.42058824,92.1235294 C7.22058824,92.1235294 6.33823529,91.4176471 6.02058824,90.2882353 L0.267647059,68.8647059 C0.232352941,68.7235294 0.197058824,68.5117647 0.197058824,68.3705882 C0.197058824,67.3823529 0.973529412,66.5705882 2.06764706,66.5705882 C2.98529412,66.5705882 3.76176471,67.1 4.04411765,68.2294118 L8.06764706,84.7117647 C8.24411765,85.4882353 8.42058824,86.3352941 8.56176471,87.2176471 C8.73823529,86.3352941 8.91470588,85.4882353 9.12647059,84.7117647 L12.6205882,72.1117647 C12.9382353,70.9470588 13.9264706,70.2058824 15.0205882,70.2058824 C16.0794118,70.2058824 17.1029412,70.9470588 17.4205882,72.1117647 L20.8441176,84.7117647 C21.0558824,85.5235294 21.2676471,86.3705882 21.4441176,87.2882353 C21.5852941,86.3705882 21.7617647,85.5235294 21.9735294,84.7117647 L26.1029412,68.1588235 C26.35,67.1352941 27.0205882,66.5705882 28.0088235,66.5705882 C29.0323529,66.5705882 29.8441176,67.3470588 29.8441176,68.3352941 C29.8441176,68.4764706 29.8088235,68.7235294 29.7735294,68.8647059 L23.8794118,90.2882353 C23.5617647,91.4176471 22.6794118,92.1235294 21.4794118,92.1235294 C20.2794118,92.1235294 19.3970588,91.4176471 19.0794118,90.2882353 L15.3735294,76.8411765 C15.2323529,76.3470588 15.0205882,75.6764706 14.95,75.1117647 C14.8794118,75.6411765 14.6676471,76.3117647 14.5264706,76.8411765 L10.8205882,90.2882353 C10.5029412,91.4176471 9.69117647,92.1235294 8.42058824,92.1235294 Z M40.3970588,92.3 C34.8205882,92.3 32.1735294,89.3352941 32.1735294,83.0529412 C32.1735294,76.7705882 34.8205882,73.8058824 40.3970588,73.8058824 C45.9735294,73.8058824 48.6205882,76.7705882 48.6205882,83.0529412 C48.6205882,89.3352941 45.9735294,92.3 40.3970588,92.3 Z M40.3970588,89.1235294 C43.5735294,89.1235294 44.95,87.2529412 44.95,83.0529412 C44.95,78.8529412 43.5735294,76.9823529 40.3970588,76.9823529 C37.2205882,76.9823529 35.8441176,78.8529412 35.8441176,83.0529412 C35.8441176,87.2529412 37.2205882,89.1235294 40.3970588,89.1235294 Z M54.9735294,92.1235294 C53.9852941,92.1235294 53.1735294,91.3117647 53.1735294,90.3235294 L53.1735294,75.7823529 C53.1735294,74.7588235 53.9852941,73.9823529 54.9735294,73.9823529 C55.9617647,73.9823529 56.7735294,74.7588235 56.7735294,75.7823529 L56.7735294,75.9941176 C57.6558824,74.6529412 59.0323529,73.8764706 60.8676471,73.8764706 C62.3147059,73.8764706 63.2323529,74.3705882 63.2323529,75.5352941 C63.2323529,76.5235294 62.6323529,77.1588235 61.6088235,77.1588235 C61.15,77.1588235 60.7264706,77.0529412 60.1617647,77.0529412 C58.6794118,77.0529412 57.4441176,77.5823529 56.7735294,78.5352941 L56.7735294,90.3235294 C56.7735294,91.3117647 55.9617647,92.1235294 54.9735294,92.1235294 Z M79.8911765,90.3941176 C79.8911765,91.3470588 79.1852941,92.1235294 78.1617647,92.1235294 C77.7382353,92.1235294 77.1735294,91.9823529 76.7852941,91.5235294 L70.0794118,83.5470588 L70.0794118,90.3235294 C70.0794118,91.3117647 69.2676471,92.1235294 68.2794118,92.1235294 C67.2911765,92.1235294 66.4794118,91.3117647 66.4794118,90.3235294 L66.4794118,68.4058824 C66.4794118,67.3823529 67.2911765,66.5705882 68.2794118,66.5705882 C69.2676471,66.5705882 70.0794118,67.3823529 70.0794118,68.4058824 L70.0794118,81.9235294 L76.9617647,74.5117647 C77.2794118,74.1588235 77.7735294,73.9823529 78.1970588,73.9823529 C79.1147059,73.9823529 79.8205882,74.7235294 79.8205882,75.6058824 C79.8205882,75.9941176 79.6794118,76.3470588 79.3970588,76.6647059 L73.6088235,82.6294118 L79.4676471,89.3 C79.75,89.6176471 79.8911765,90.0058824 79.8911765,90.3941176 Z M89.0676471,92.2647059 C86.8794118,92.2647059 85.0794118,91.9470588 83.7735294,91.3470588 C82.9970588,90.9941176 82.5735294,90.1470588 82.9264706,89.3 C83.2794118,88.4529412 84.1617647,88.2058824 85.3617647,88.5588235 C86.3852941,88.8764706 87.6558824,89.2294118 89.0676471,89.2294118 C91.5382353,89.2294118 92.5970588,88.5235294 92.5970588,87.0411765 C92.5970588,85.8058824 91.8911765,85.2058824 88.5382353,84.3235294 C84.6205882,83.3 82.9617647,81.9588235 82.9617647,78.8882353 C82.9617647,75.6411765 85.1147059,73.7705882 89.95,73.7705882 C91.7147059,73.7705882 93.4794118,74.0176471 94.5382353,74.6176471 C95.35,75.0764706 95.6676471,75.8176471 95.35,76.5941176 C94.9970588,77.4411765 94.15,77.6529412 93.0911765,77.3352941 C92.1029412,77.0529412 91.0441176,76.8058824 89.8794118,76.8058824 C87.55,76.8058824 86.5264706,77.4411765 86.5264706,78.8176471 C86.5264706,80.0882353 87.3735294,80.7941176 90.3029412,81.5705882 C94.75,82.7352941 96.1617647,84.2176471 96.1617647,86.9705882 C96.1617647,90.5 93.9382353,92.2647059 89.0676471,92.2647059 Z M115.75,82.9470588 C115.75,89.2294118 112.820588,92.3 107.244118,92.3 C106.15,92.3 105.338235,92.1588235 104.279412,91.9117647 L104.279412,97.8411765 C104.279412,98.8647059 103.467647,99.6764706 102.479412,99.6764706 C101.491176,99.6764706 100.679412,98.8647059 100.679412,97.8411765 L100.679412,75.7823529 C100.679412,74.7588235 101.491176,73.9823529 102.479412,73.9823529 C103.467647,73.9823529 104.279412,74.7588235 104.279412,75.7823529 L104.279412,75.8882353 C105.267647,74.4764706 106.644118,73.8058824 108.620588,73.8058824 C112.997059,73.8058824 115.75,76.5588235 115.75,82.9470588 Z M112.079412,82.8411765 C112.079412,78.8176471 110.632353,76.9823529 107.844118,76.9823529 C106.255882,76.9823529 104.95,77.4411765 104.279412,78.4294118 L104.279412,88.7705882 C104.95,89.0176471 105.726471,89.1235294 106.644118,89.1235294 C110.455882,89.1235294 112.079412,87.1470588 112.079412,82.8411765 Z M119.314706,86.5117647 C119.314706,82.7 121.714706,80.9 126.55,80.9 C127.926471,80.9 129.055882,81.0764706 130.15,81.3941176 L130.15,80.7941176 C130.15,77.9352941 129.126471,76.8411765 126.267647,76.8411765 C125.067647,76.8411765 124.079412,77.0882353 123.055882,77.4058824 C122.067647,77.7235294 121.114706,77.5117647 120.832353,76.5588235 C120.55,75.6411765 121.114706,74.9 122.244118,74.4764706 C123.585294,73.9823529 125.314706,73.7705882 126.691176,73.7705882 C131.773529,73.7705882 133.75,75.7470588 133.75,81.0058824 L133.75,90.2882353 C133.75,91.3117647 132.973529,92.1235294 131.95,92.1235294 C130.926471,92.1235294 130.15,91.3117647 130.15,90.2882353 L130.15,90.1470588 C129.126471,91.5588235 127.608824,92.2647059 125.455882,92.2647059 C121.820588,92.2647059 119.314706,90.4647059 119.314706,86.5117647 Z M122.879412,86.5470588 C122.879412,88.6294118 124.220588,89.4764706 126.373529,89.4764706 C128.279412,89.4764706 129.408824,88.7705882 130.15,87.7823529 L130.15,84.0764706 C129.302941,83.7941176 128.35,83.6529412 127.185294,83.6529412 C124.185294,83.6529412 122.879412,84.5 122.879412,86.5470588 Z M138.091176,83.0176471 C138.091176,76.6647059 140.738235,73.7705882 146.455882,73.7705882 C147.832353,73.7705882 149.455882,74.0529412 150.267647,74.4764706 C151.15,74.9 151.432353,75.6764706 151.114706,76.4882353 C150.797059,77.3 149.985294,77.5823529 149.067647,77.3352941 C148.291176,77.1235294 147.514706,76.9470588 146.561765,76.9470588 C143.208824,76.9470588 141.761765,78.7823529 141.761765,83.0176471 C141.761765,87.2529412 143.208824,89.0882353 146.561765,89.0882353 C147.514706,89.0882353 148.291176,88.9117647 149.067647,88.7 C149.985294,88.4529412 150.797059,88.7352941 151.114706,89.5470588 C151.432353,90.3588235 151.15,91.1352941 150.267647,91.5588235 C149.455882,91.9823529 147.832353,92.2647059 146.455882,92.2647059 C140.738235,92.2647059 138.091176,89.3705882 138.091176,83.0176471 Z M167.95,91.4176471 C166.820588,92.0176471 164.844118,92.3 163.079412,92.3 C157.044118,92.3 154.432353,89.4764706 154.432353,83.0529412 C154.432353,76.7705882 156.938235,73.8058824 162.197059,73.8058824 C167.455882,73.8058824 169.75,76.6647059 169.75,83.1235294 C169.75,83.6529412 169.397059,84.0411765 168.867647,84.0411765 L158.138235,84.0411765 C158.314706,87.8882353 160.008824,89.1235294 163.397059,89.1235294 C164.632353,89.1235294 165.761765,88.9470588 166.855882,88.4882353 C167.702941,88.1705882 168.55,88.6294118 168.832353,89.4058824 C169.114706,90.2176471 168.761765,90.9941176 167.95,91.4176471 Z M162.161765,76.6647059 C159.797059,76.6647059 158.35,77.8294118 158.138235,81.3588235 L166.114706,81.3588235 C166.008824,78.0411765 164.738235,76.6647059 162.161765,76.6647059 Z" id="Workspace" fill="#333333"></path>
                    <path d="M85.0665648,27.9903258 C86.7043093,27.9970127 87.9962138,26.7205854 88.0056983,25.0869993 C88.0151774,23.4653383 86.7165798,22.146866 85.1007595,22.1366701 C83.4872423,22.126567 82.1697539,23.4336094 82.162263,25.0527303 C82.1547645,26.6883028 83.4357883,27.9837341 85.0665529,27.9903258 L85.0653747,28.2818212 L85.0665648,27.9903258 Z M85.0828603,38.9742695 C77.4506301,38.9514558 71.2313957,32.7557065 71.2031274,25.1398938 C71.1748498,17.5151839 77.3256914,11.2358939 84.8804487,11.1798253 C86.8083654,11.1656036 88.1801685,12.6997815 87.8309475,14.5040716 C87.5699302,15.853509 86.4601521,16.7260395 84.9746958,16.7671055 C81.2581662,16.869803 78.1000953,19.25501 77.1334433,22.7191238 C76.1987376,26.0688978 77.0236631,28.9774464 79.5788453,31.2560883 C82.1578529,33.5558679 85.1664821,34.0525246 88.3270765,32.6929858 C91.5228448,31.3183191 93.221923,28.766915 93.3848803,25.1838068 C93.4413106,23.9438286 93.9459526,23.0631423 94.9736947,22.5671756 C95.9588576,22.0917881 96.9595803,22.1911519 97.8499167,22.8479376 C98.5680258,23.3775416 98.9433343,24.1245481 98.9640643,25.0364409 C99.1209575,31.9452237 93.4946302,38.2351758 86.5932714,38.8665937 C86.3140026,38.8920839 86.0791642,38.9090167 85.5972535,38.9404909 C85.3379864,38.9574201 85.2339579,38.9643573 85.1043341,38.9735418 L85.0837316,38.682773 L85.0828603,38.9742695 Z M60.029596,25.0310395 C60.0816992,11.2793047 71.2070518,0.060181906 84.8536257,3.74160483e-05 C86.5801321,-0.00759716707 87.8556852,1.15390721 87.8615531,2.76280955 C87.867414,4.37842289 86.6274279,5.53258952 84.8879204,5.55545772 C74.4261401,5.69303681 66.1101611,13.8139264 65.5647135,24.429418 C65.0549796,34.3480751 72.714086,43.2665738 82.7869943,44.4777473 C94.2680567,45.8580479 104.413858,36.9506108 104.613621,25.313193 C104.647452,23.3496965 106.082656,22.029293 107.866029,22.3557373 C109.246487,22.6085813 110.151532,23.7723145 110.137857,25.2590693 C110.040879,35.8350955 103.35746,45.1800446 93.3679934,48.7074629 C77.1459407,54.4357695 59.9645344,42.2337892 60.029596,25.0310415 L60.3210915,25.032144 L60.029596,25.0310395 Z" id="Logo" fill="#2071C5" fill-rule="nonzero"></path>
                </g>
            </g>
        </g>
    </g>
</svg>