<?xml version="1.0" encoding="UTF-8"?>
<svg width="48px" height="48px" viewBox="0 0 48 48" version="1.1" xmlns="http://www.w3.org/2000/svg" xmlns:xlink="http://www.w3.org/1999/xlink">
    <!-- Generator: Sketch 50.2 (55047) - http://www.bohemiancoding.com/sketch -->
    <title>Warning_48</title>
    <desc>Created with Sketch.</desc>
    <defs></defs>
    <g id="Warning_48" stroke="none" stroke-width="1" fill="none" fill-rule="evenodd">
        <path d="M1.52601398,43.0749221 L22.2251474,3.39862938 C22.7360538,2.4193192 23.944113,2.03960292 24.9234232,2.55050932 C25.2862029,2.73977158 25.5822024,3.03575299 25.7714868,3.39852111 L46.4737023,43.0748139 C46.9846685,44.0540928 46.605026,45.2621752 45.625747,45.7731414 C45.3401243,45.9221731 45.0227265,46 44.7005609,46 L3.29921191,46 C2.19464241,46 1.29921191,45.1045695 1.29921191,44 C1.29921191,43.6778756 1.3770189,43.3605173 1.52601398,43.0749221 Z M43.7534128,42.528973 L24.889953,5.73568037 C24.6379881,5.24422121 24.0353238,5.05007279 23.5438646,5.30203774 C23.3574689,5.39760049 23.2057871,5.54928178 23.1102236,5.73567715 L4.24659554,42.5289698 C3.9946288,43.020428 4.18877504,43.6230931 4.68023329,43.8750598 C4.82141828,43.9474442 4.97780033,43.9851959 5.13645942,43.9851959 L42.8635472,43.9851959 C43.415832,43.9851959 43.8635472,43.5374807 43.8635472,42.9851959 C43.8635472,42.826538 43.8257961,42.6701572 43.7534128,42.528973 Z M24,39.5 C23.1715729,39.5 22.5,38.8284271 22.5,38 C22.5,37.1715729 23.1715729,36.5 24,36.5 C24.8284271,36.5 25.5,37.1715729 25.5,38 C25.5,38.8284271 24.8284271,39.5 24,39.5 Z M23.9932616,33.9111754 C23.4446984,33.9111754 23,33.4664771 23,32.9179138 L23,16.4932616 C23,15.9446984 23.4446984,15.5 23.9932616,15.5 C24.5418249,15.5 24.9865232,15.9446984 24.9865232,16.4932616 L24.9865232,32.9179138 C24.9865232,33.4664771 24.5418249,33.9111754 23.9932616,33.9111754 Z" id="Combined-Shape" fill="#FF5F14" fill-rule="nonzero"></path>
    </g>
</svg>